PathFileType   4   (X/Y/Z)
DataRate	CameraRate	NumFrames	NumMarkers	Units	OrigDataRate	OrigDataStartFrame	OrigNumFrames
120.0	120.0	9	37	mm	120.0	103	164
Frame#	Time	midhip	hip_r	hip_l	knee_r	knee_l	ankle_r	ankle_l	midasis	asis_r	asis_l	psis_r	psis_l	epicondLat_r	epicondLat_l	epicondMed_r	epicondMed_l	malleolusLat_r	malleolusLat_l	malleolusMedv_r	malleolusMedv_l	neck	subclavicle_r	subclavicle_l	sternalnotch	xyphoidprocess	thighwand_r	thighwand_l	upperleg1_r	upperleg1_l	upperleg2_r	upperleg2_l	shankwand_r	shankwand_l	lowerleg1_r	lowerleg1_l	toe_r	toe_l
 	 	X1	Y1	Z1	X2	Y2	Z2	X3	Y3	Z3	X4	Y4	Z4	X5	Y5	Z5	X6	Y6	Z6	X7	Y7	Z7	X8	Y8	Z8	X9	Y9	Z9	X10	Y10	Z10	X11	Y11	Z11	X12	Y12	Z12	X13	Y13	Z13	X14	Y14	Z14	X15	Y15	Z15	X16	Y16	Z16	X17	Y17	Z17	X18	Y18	Z18	X19	Y19	Z19	X20	Y20	Z20	X21	Y21	Z21	X22	Y22	Z22	X23	Y23	Z23	X24	Y24	Z24	X25	Y25	Z25	X26	Y26	Z26	X27	Y27	Z27	X28	Y28	Z28	X29	Y29	Z29	X30	Y30	Z30	X31	Y31	Z31	X32	Y32	Z32	X33	Y33	Z33	X34	Y34	Z34	X35	Y35	Z35	X36	Y36	Z36	X37	Y37	Z37

	103	1.15833	1212.428	748.753	-201.316	1204.203	747.004	-136.464	1190.522	744.476	-266.035	1250.475	409.255	-160.621	1217.420	421.979	-301.903	1272.827	66.553	-171.858	976.759	174.116	-286.429	1266.992	814.795	-209.948	1277.626	816.761	-109.235	1256.359	812.830	-310.662	1114.789	855.240	-161.074	1106.595	852.162	-214.874	1257.641	406.342	-106.168	1204.677	426.786	-354.673	1238.091	417.255	-206.388	1232.463	385.534	-260.958	1272.540	65.305	-134.379	968.112	180.300	-321.869	1274.045	68.026	-196.828	983.357	167.990	-257.824	1137.520	1222.384	-193.459	1247.832	1162.407	-163.970	1239.294	1166.528	-239.352	1228.770	1163.443	-201.448	1255.792	1080.966	-206.593	1348.429	538.855	-58.911	1352.479	554.187	-329.647	1264.229	585.272	-75.347	1271.118	606.239	-342.176	1269.986	502.679	-96.683	1269.648	519.306	-345.852	1267.547	170.867	-53.540	1054.865	256.793	-405.086	1258.282	139.203	-129.553	1027.456	235.621	-327.970	1372.230	38.750	-160.468	1007.604	75.613	-313.450
	104	1.16667	1216.568	749.131	-199.094	1208.205	747.297	-135.586	1195.027	744.925	-265.212	1252.095	409.421	-159.955	1227.504	422.857	-300.686	1272.964	66.519	-171.678	988.039	174.535	-284.985	1271.280	815.176	-208.744	1281.525	817.020	-107.963	1261.035	813.332	-309.525	1118.463	855.688	-160.126	1110.925	852.542	-214.182	1258.786	406.359	-105.449	1214.908	427.406	-353.515	1243.427	416.827	-205.430	1242.469	386.662	-259.382	1272.462	65.208	-134.204	979.306	180.718	-320.403	1274.013	68.011	-196.747	994.906	168.205	-256.368	1142.020	1222.614	-192.632	1252.337	1162.737	-163.115	1243.078	1166.912	-238.451	1232.917	1163.804	-200.429	1259.863	1081.322	-205.886	1350.273	538.142	-57.119	1360.510	557.013	-328.015	1266.618	585.124	-74.359	1278.325	607.644	-341.133	1273.171	502.749	-95.397	1278.127	520.682	-344.533	1267.495	170.668	-53.137	1065.562	257.474	-403.687	1258.400	139.210	-129.314	1038.429	236.175	-326.391	1372.192	38.688	-160.286	1020.540	77.184	-312.976
	105	1.17500	1220.696	749.615	-196.865	1212.026	747.597	-134.833	1199.419	745.442	-264.520	1253.710	409.581	-159.327	1237.396	423.871	-299.353	1273.091	66.480	-171.466	999.659	174.448	-283.608	1275.469	815.550	-207.604	1285.272	817.226	-106.760	1265.666	813.874	-308.447	1122.107	856.218	-159.177	1115.240	852.997	-213.540	1259.893	406.390	-104.769	1224.998	428.137	-352.252	1240.516	417.750	-204.983	1251.750	388.202	-257.194	1272.363	65.113	-133.998	990.809	180.650	-318.994	1273.968	68.034	-196.556	1006.805	167.985	-254.994	1146.464	1222.855	-191.751	1256.731	1163.108	-162.293	1247.321	1167.293	-237.691	1237.237	1164.172	-199.611	1264.217	1081.705	-205.128	1352.025	537.440	-55.301	1368.387	559.885	-326.242	1268.905	585.116	-73.338	1285.554	609.195	-340.004	1272.907	502.105	-94.756	1286.307	522.054	-342.937	1267.398	170.509	-52.726	1076.394	258.012	-402.277	1258.501	139.206	-129.071	1049.739	236.465	-324.945	1372.141	38.629	-160.064	1034.115	78.422	-312.465
	106	1.18333	1224.878	750.237	-194.766	1215.958	747.935	-134.093	1203.805	745.999	-263.826	1255.400	409.761	-158.732	1247.111	424.981	-297.935	1273.210	66.439	-171.221	1011.655	173.862	-282.290	1279.708	815.957	-206.530	1289.159	817.463	-105.641	1270.257	814.451	-307.420	1125.762	856.802	-158.282	1119.545	853.517	-212.943	1261.039	406.440	-104.122	1234.948	428.969	-350.911	1248.456	417.459	-204.562	1261.027	389.636	-255.692	1272.243	65.026	-133.760	1002.674	180.081	-317.640	1274.021	68.102	-196.308	1018.969	167.373	-253.672	1150.836	1223.388	-190.888	1261.087	1163.579	-161.492	1251.878	1167.814	-236.932	1241.692	1164.668	-198.872	1268.684	1082.205	-204.370	1353.740	536.769	-53.483	1376.128	562.819	-324.329	1271.091	585.209	-72.354	1292.729	610.845	-338.878	1276.982	502.367	-93.653	1294.579	523.618	-341.557	1267.280	170.392	-52.313	1087.428	258.324	-400.872	1258.598	139.218	-128.774	1061.251	236.397	-323.569	1372.078	38.575	-159.802	1048.292	79.308	-311.886
	107	1.19167	1229.029	750.820	-193.214	1219.911	748.289	-133.391	1208.173	746.588	-263.165	1257.231	409.946	-158.161	1256.630	426.166	-296.469	1273.335	66.402	-170.951	1024.016	172.810	-281.024	1283.956	816.377	-205.505	1293.086	817.700	-104.568	1274.826	815.054	-306.442	1129.589	857.375	-157.537	1123.841	854.084	-212.378	1262.307	406.505	-103.503	1244.750	429.885	-349.528	1249.753	418.157	-204.303	1270.536	390.892	-254.728	1272.108	64.951	-133.499	1014.913	179.015	-316.346	1274.089	68.179	-196.007	1031.509	166.402	-252.438	1155.147	1224.086	-190.197	1265.453	1164.145	-160.682	1256.547	1168.454	-236.094	1246.209	1165.272	-198.107	1273.219	1082.813	-203.583	1355.464	536.142	-51.692	1383.727	565.807	-322.279	1273.278	585.269	-71.400	1299.727	612.500	-337.696	1278.336	502.361	-92.903	1302.920	525.368	-340.314	1267.145	170.320	-51.902	1098.719	258.316	-399.483	1258.686	139.290	-128.435	1072.814	235.968	-322.229	1372.006	38.522	-159.507	1063.033	79.833	-311.220
	108	1.20000	1233.219	751.303	-192.718	1223.834	748.638	-132.739	1212.518	747.194	-262.555	1259.273	410.122	-157.596	1265.934	427.396	-294.982	1273.487	66.373	-170.655	1036.721	171.310	-279.801	1288.185	816.793	-204.516	1296.988	817.917	-103.528	1279.382	815.670	-305.503	1133.782	857.857	-157.066	1128.131	854.667	-211.843	1263.778	406.577	-102.896	1254.388	430.857	-348.132	1249.279	418.689	-203.548	1280.133	392.320	-253.360	1271.965	64.888	-133.215	1027.528	177.445	-315.112	1274.156	68.274	-195.653	1044.401	165.073	-251.251	1159.411	1224.411	-189.448	1269.835	1164.755	-159.847	1261.139	1169.104	-235.239	1250.698	1165.858	-197.306	1277.968	1083.484	-202.778	1357.233	535.559	-49.969	1391.177	568.816	-320.107	1275.644	585.270	-70.467	1306.584	614.254	-336.436	1279.120	502.228	-92.006	1311.203	527.134	-338.866	1266.982	170.297	-51.492	1110.308	257.915	-398.123	1258.809	139.405	-128.050	1084.544	235.146	-320.959	1371.933	38.463	-159.188	1078.290	79.999	-310.458
	109	1.20833	1237.463	751.757	-192.808	1227.725	748.977	-132.122	1216.837	747.803	-261.977	1261.533	410.282	-157.027	1275.021	428.624	-293.488	1273.682	66.352	-170.329	1049.741	169.367	-278.623	1292.392	817.201	-203.550	1300.863	818.114	-102.515	1283.920	816.288	-304.585	1138.178	858.287	-156.729	1132.414	855.250	-211.345	1265.484	406.651	-102.290	1263.858	431.846	-346.735	1255.109	418.475	-202.878	1289.617	393.939	-251.775	1271.821	64.839	-132.906	1040.505	175.367	-313.945	1274.233	68.390	-195.283	1057.514	163.301	-250.044	1163.655	1224.621	-188.702	1274.069	1165.369	-159.082	1265.392	1169.686	-234.418	1254.944	1166.414	-196.517	1282.448	1084.117	-201.975	1359.078	535.020	-48.354	1398.482	571.819	-317.824	1278.126	585.224	-69.616	1313.274	616.080	-335.253	1282.537	502.494	-90.924	1319.390	528.958	-337.355	1266.782	170.308	-51.079	1122.224	257.080	-396.808	1258.925	139.526	-127.635	1096.689	233.925	-319.696	1371.872	38.392	-158.850	1094.029	79.809	-309.585
	110	1.21667	1241.574	752.068	-193.038	1231.603	749.301	-131.527	1221.150	748.405	-261.420	1263.921	410.425	-156.470	1283.897	429.811	-292.010	1273.920	66.329	-169.993	1063.078	166.998	-277.507	1296.583	817.600	-202.598	1304.718	818.297	-101.522	1288.449	816.903	-303.673	1142.586	858.679	-156.464	1136.689	855.826	-210.891	1267.355	406.722	-101.703	1273.159	432.818	-345.357	1253.134	419.332	-202.663	1298.595	395.439	-250.685	1271.686	64.794	-132.591	1053.851	172.799	-312.865	1274.314	68.536	-194.941	1070.858	161.100	-248.859	1167.880	1224.986	-188.140	1278.205	1165.977	-158.362	1269.548	1170.193	-233.704	1259.092	1166.955	-195.804	1286.693	1084.683	-201.154	1361.018	534.523	-46.874	1405.607	574.765	-315.441	1280.627	585.212	-68.866	1319.843	617.880	-334.006	1282.803	502.054	-90.514	1327.347	530.867	-335.969	1266.550	170.334	-50.662	1134.479	255.799	-395.554	1259.035	139.650	-127.267	1109.183	232.275	-318.462	1371.835	38.303	-158.508	1110.221	79.278	-308.596
	111	1.22500	1245.502	752.234	-192.979	1235.455	749.596	-130.980	1225.466	748.989	-260.911	1266.344	410.551	-155.949	1292.558	430.944	-290.578	1274.197	66.292	-169.682	1076.730	164.233	-276.456	1300.756	817.983	-201.671	1308.529	818.456	-100.567	1292.984	817.510	-302.775	1146.854	859.061	-156.173	1140.953	856.377	-210.477	1269.312	406.786	-101.159	1282.294	433.765	-344.028	1256.806	419.144	-201.938	1307.111	396.783	-249.810	1271.575	64.742	-132.306	1067.572	169.769	-311.875	1274.409	68.731	-194.639	1084.613	158.527	-247.776	1172.041	1225.438	-187.615	1282.437	1166.553	-157.603	1273.598	1170.457	-232.998	1263.233	1167.376	-195.032	1290.820	1085.082	-200.102	1363.055	534.065	-45.539	1412.511	577.598	-312.959	1283.149	585.267	-68.184	1326.362	619.592	-332.597	1285.457	502.032	-89.663	1335.090	532.719	-334.560	1266.303	170.358	-50.244	1147.074	254.085	-394.374	1259.211	139.794	-126.947	1121.786	230.241	-317.361	1371.830	38.198	-158.177	1126.831	78.427	-307.499
